<svg xmlns="http://www.w3.org/2000/svg" width="148" height="42" viewBox="0 0 148 42" role="img" aria-labelledby="title">
  <title id="title">01.AI · Yi</title>
  <defs>
    <linearGradient id="surface" x1="0" y1="0" x2="1" y2="1">
      <stop offset="0" stop-color="#102846"/>
      <stop offset="1" stop-color="#0b1b31"/>
    </linearGradient>
  </defs>
  <rect x="0.5" y="0.5" width="147" height="41" rx="10" fill="url(#surface)" stroke="#294a70"/>
  <rect x="0" y="8" width="2" height="26" rx="1" fill="#35d4ff" fill-opacity="0.72"/>
  <ns0:svg xmlns:ns0="http://www.w3.org/2000/svg" fill="currentColor" fill-rule="evenodd" height="22" style="flex:none;line-height:1" viewBox="0 0 24 24" width="22" x="12" y="10" color="#f6f9ff" aria-hidden="true"><ns0:path d="M18.62 13.927c.611 0 1.107.505 1.107 1.128v5.817c0 .623-.496 1.128-1.108 1.128a1.118 1.118 0 01-1.108-1.128v-5.817c0-.623.496-1.128 1.108-1.128zM16.59 3.052a1.094 1.094 0 011.562-.129c.466.404.522 1.116.126 1.59l-5.938 7.111v9.147c0 .624-.496 1.129-1.108 1.129a1.118 1.118 0 01-1.108-1.129v-9.477l.003-.088.01-.087c.015-.232.102-.462.261-.654l6.192-7.413zM2.906 2.256a1.094 1.094 0 011.559.157l4.387 5.45a1.142 1.142 0 01-.155 1.587 1.094 1.094 0 01-1.559-.157l-4.387-5.45a1.144 1.144 0 01.06-1.498l.095-.09z" /><ns0:ellipse cx="20.146" cy="10.692" fill="#00FF25" rx="1.354" ry="1.379" /></ns0:svg>
  <text x="42" y="25" fill="#f6f9ff" font-family="Arial, sans-serif" font-size="10.5" font-weight="700" letter-spacing="0.15">01.AI · Yi</text>
</svg>
