<svg xmlns="http://www.w3.org/2000/svg" width="148" height="42" viewBox="0 0 148 42" role="img" aria-labelledby="title">
  <title id="title">Azure AI</title>
  <defs>
    <linearGradient id="surface" x1="0" y1="0" x2="1" y2="1">
      <stop offset="0" stop-color="#102846"/>
      <stop offset="1" stop-color="#0b1b31"/>
    </linearGradient>
  </defs>
  <rect x="0.5" y="0.5" width="147" height="41" rx="10" fill="url(#surface)" stroke="#294a70"/>
  <rect x="0" y="8" width="2" height="26" rx="1" fill="#35d4ff" fill-opacity="0.72"/>
  <ns0:svg xmlns:ns0="http://www.w3.org/2000/svg" height="22" style="flex:none;line-height:1" viewBox="0 0 24 24" width="22" x="12" y="10" color="#f6f9ff" aria-hidden="true"><ns0:path clip-rule="evenodd" d="M16.233 0c.713 0 1.345.551 1.572 1.329.227.778 1.555 5.59 1.555 5.59v9.562h-4.813L14.645 0h1.588z" fill="url(#lobe-icons-azure-ai-0-_R_0_)" fill-rule="evenodd" /><ns0:path d="M23.298 7.47c0-.34-.275-.6-.6-.6h-2.835a3.617 3.617 0 00-3.614 3.615v5.996h3.436a3.617 3.617 0 003.613-3.614V7.47z" fill="url(#lobe-icons-azure-ai-1-_R_0_)" /><ns0:path clip-rule="evenodd" d="M16.233 0a.982.982 0 00-.989.989l-.097 18.198A4.814 4.814 0 0110.334 24H1.6a.597.597 0 01-.567-.794l7-19.981A4.819 4.819 0 0112.57 0h3.679-.016z" fill="url(#lobe-icons-azure-ai-2-_R_0_)" fill-rule="evenodd" /><ns0:defs><ns0:linearGradient gradientUnits="userSpaceOnUse" id="lobe-icons-azure-ai-0-_R_0_" x1="18.242" x2="14.191" y1="16.837" y2=".616"><ns0:stop stop-color="#712575" /><ns0:stop offset=".09" stop-color="#9A2884" /><ns0:stop offset=".18" stop-color="#BF2C92" /><ns0:stop offset=".27" stop-color="#DA2E9C" /><ns0:stop offset=".34" stop-color="#EB30A2" /><ns0:stop offset=".4" stop-color="#F131A5" /><ns0:stop offset=".5" stop-color="#EC30A3" /><ns0:stop offset=".61" stop-color="#DF2F9E" /><ns0:stop offset=".72" stop-color="#C92D96" /><ns0:stop offset=".83" stop-color="#AA2A8A" /><ns0:stop offset=".95" stop-color="#83267C" /><ns0:stop offset="1" stop-color="#712575" /></ns0:linearGradient><ns0:linearGradient gradientUnits="userSpaceOnUse" id="lobe-icons-azure-ai-1-_R_0_" x1="19.782" x2="19.782" y1=".34" y2="23.222"><ns0:stop stop-color="#DA7ED0" /><ns0:stop offset=".08" stop-color="#B17BD5" /><ns0:stop offset=".19" stop-color="#8778DB" /><ns0:stop offset=".3" stop-color="#6276E1" /><ns0:stop offset=".41" stop-color="#4574E5" /><ns0:stop offset=".54" stop-color="#2E72E8" /><ns0:stop offset=".67" stop-color="#1D71EB" /><ns0:stop offset=".81" stop-color="#1471EC" /><ns0:stop offset="1" stop-color="#1171ED" /></ns0:linearGradient><ns0:linearGradient gradientUnits="userSpaceOnUse" id="lobe-icons-azure-ai-2-_R_0_" x1="18.404" x2="3.236" y1=".859" y2="25.183"><ns0:stop stop-color="#DA7ED0" /><ns0:stop offset=".05" stop-color="#B77BD4" /><ns0:stop offset=".11" stop-color="#9079DA" /><ns0:stop offset=".18" stop-color="#6E77DF" /><ns0:stop offset=".25" stop-color="#5175E3" /><ns0:stop offset=".33" stop-color="#3973E7" /><ns0:stop offset=".42" stop-color="#2772E9" /><ns0:stop offset=".54" stop-color="#1A71EB" /><ns0:stop offset=".68" stop-color="#1371EC" /><ns0:stop offset="1" stop-color="#1171ED" /></ns0:linearGradient></ns0:defs></ns0:svg>
  <text x="42" y="25" fill="#f6f9ff" font-family="Arial, sans-serif" font-size="10.5" font-weight="700" letter-spacing="0.15">Azure AI</text>
</svg>
