<svg xmlns="http://www.w3.org/2000/svg" width="148" height="42" viewBox="0 0 148 42" role="img" aria-labelledby="title">
  <title id="title">Cohere</title>
  <defs>
    <linearGradient id="surface" x1="0" y1="0" x2="1" y2="1">
      <stop offset="0" stop-color="#102846"/>
      <stop offset="1" stop-color="#0b1b31"/>
    </linearGradient>
  </defs>
  <rect x="0.5" y="0.5" width="147" height="41" rx="10" fill="url(#surface)" stroke="#294a70"/>
  <rect x="0" y="8" width="2" height="26" rx="1" fill="#35d4ff" fill-opacity="0.72"/>
  <ns0:svg xmlns:ns0="http://www.w3.org/2000/svg" height="22" style="flex:none;line-height:1" viewBox="0 0 24 24" width="22" x="12" y="10" color="#f6f9ff" aria-hidden="true"><ns0:path clip-rule="evenodd" d="M8.128 14.099c.592 0 1.77-.033 3.398-.703 1.897-.781 5.672-2.2 8.395-3.656 1.905-1.018 2.74-2.366 2.74-4.18A4.56 4.56 0 0018.1 1H7.549A6.55 6.55 0 001 7.55c0 3.617 2.745 6.549 7.128 6.549z" fill="#39594D" fill-rule="evenodd" /><ns0:path clip-rule="evenodd" d="M9.912 18.61a4.387 4.387 0 012.705-4.052l3.323-1.38c3.361-1.394 7.06 1.076 7.06 4.715a5.104 5.104 0 01-5.105 5.104l-3.597-.001a4.386 4.386 0 01-4.386-4.387z" fill="#D18EE2" fill-rule="evenodd" /><ns0:path d="M4.776 14.962A3.775 3.775 0 001 18.738v.489a3.776 3.776 0 007.551 0v-.49a3.775 3.775 0 00-3.775-3.775z" fill="#FF7759" /></ns0:svg>
  <text x="42" y="25" fill="#f6f9ff" font-family="Arial, sans-serif" font-size="10.5" font-weight="700" letter-spacing="0.15">Cohere</text>
</svg>
