<svg xmlns="http://www.w3.org/2000/svg" width="148" height="42" viewBox="0 0 148 42" role="img" aria-labelledby="title">
  <title id="title">Groq</title>
  <defs>
    <linearGradient id="surface" x1="0" y1="0" x2="1" y2="1">
      <stop offset="0" stop-color="#102846"/>
      <stop offset="1" stop-color="#0b1b31"/>
    </linearGradient>
  </defs>
  <rect x="0.5" y="0.5" width="147" height="41" rx="10" fill="url(#surface)" stroke="#294a70"/>
  <rect x="0" y="8" width="2" height="26" rx="1" fill="#35d4ff" fill-opacity="0.72"/>
  <ns0:svg xmlns:ns0="http://www.w3.org/2000/svg" fill="currentColor" fill-rule="evenodd" height="22" style="flex:none;line-height:1" viewBox="0 0 24 24" width="22" x="12" y="10" color="#f6f9ff" aria-hidden="true"><ns0:path d="M12.036 2c-3.853-.035-7 3-7.036 6.781-.035 3.782 3.055 6.872 6.908 6.907h2.42v-2.566h-2.292c-2.407.028-4.38-1.866-4.408-4.23-.029-2.362 1.901-4.298 4.308-4.326h.1c2.407 0 4.358 1.915 4.365 4.278v6.305c0 2.342-1.944 4.25-4.323 4.279a4.375 4.375 0 01-3.033-1.252l-1.851 1.818A7 7 0 0012.029 22h.092c3.803-.056 6.858-3.083 6.879-6.816v-6.5C18.907 4.963 15.817 2 12.036 2z" /></ns0:svg>
  <text x="42" y="25" fill="#f6f9ff" font-family="Arial, sans-serif" font-size="10.5" font-weight="700" letter-spacing="0.15">Groq</text>
</svg>
