<svg xmlns="http://www.w3.org/2000/svg" width="148" height="42" viewBox="0 0 148 42" role="img" aria-labelledby="title">
  <title id="title">MiniMax</title>
  <defs>
    <linearGradient id="surface" x1="0" y1="0" x2="1" y2="1">
      <stop offset="0" stop-color="#102846"/>
      <stop offset="1" stop-color="#0b1b31"/>
    </linearGradient>
  </defs>
  <rect x="0.5" y="0.5" width="147" height="41" rx="10" fill="url(#surface)" stroke="#294a70"/>
  <rect x="0" y="8" width="2" height="26" rx="1" fill="#35d4ff" fill-opacity="0.72"/>
  <ns0:svg xmlns:ns0="http://www.w3.org/2000/svg" height="22" style="flex:none;line-height:1" viewBox="0 0 24 24" width="22" x="12" y="10" color="#f6f9ff" aria-hidden="true"><ns0:defs><ns0:linearGradient id="lobe-icons-minimax-_R_0_" x1="0%" x2="100.182%" y1="50.057%" y2="50.057%"><ns0:stop offset="0%" stop-color="#E2167E" /><ns0:stop offset="100%" stop-color="#FE603C" /></ns0:linearGradient></ns0:defs><ns0:path d="M16.278 2c1.156 0 2.093.927 2.093 2.07v12.501a.74.74 0 00.744.709.74.74 0 00.743-.709V9.099a2.06 2.06 0 012.071-2.049A2.06 2.06 0 0124 9.1v6.561a.649.649 0 01-.652.645.649.649 0 01-.653-.645V9.1a.762.762 0 00-.766-.758.762.762 0 00-.766.758v7.472a2.037 2.037 0 01-2.048 2.026 2.037 2.037 0 01-2.048-2.026v-12.5a.785.785 0 00-.788-.753.785.785 0 00-.789.752l-.001 15.904A2.037 2.037 0 0113.441 22a2.037 2.037 0 01-2.048-2.026V18.04c0-.356.292-.645.652-.645.36 0 .652.289.652.645v1.934c0 .263.142.506.372.638.23.131.514.131.744 0a.734.734 0 00.372-.638V4.07c0-1.143.937-2.07 2.093-2.07zm-5.674 0c1.156 0 2.093.927 2.093 2.07v11.523a.648.648 0 01-.652.645.648.648 0 01-.652-.645V4.07a.785.785 0 00-.789-.78.785.785 0 00-.789.78v14.013a2.06 2.06 0 01-2.07 2.048 2.06 2.06 0 01-2.071-2.048V9.1a.762.762 0 00-.766-.758.762.762 0 00-.766.758v3.8a2.06 2.06 0 01-2.071 2.049A2.06 2.06 0 010 12.9v-1.378c0-.357.292-.646.652-.646.36 0 .653.29.653.646V12.9c0 .418.343.757.766.757s.766-.339.766-.757V9.099a2.06 2.06 0 012.07-2.048 2.06 2.06 0 012.071 2.048v8.984c0 .419.343.758.767.758.423 0 .766-.339.766-.758V4.07c0-1.143.937-2.07 2.093-2.07z" fill="url(#lobe-icons-minimax-_R_0_)" fill-rule="nonzero" /></ns0:svg>
  <text x="42" y="25" fill="#f6f9ff" font-family="Arial, sans-serif" font-size="10.5" font-weight="700" letter-spacing="0.15">MiniMax</text>
</svg>
