<svg xmlns="http://www.w3.org/2000/svg" width="148" height="42" viewBox="0 0 148 42" role="img" aria-labelledby="title">
  <title id="title">Moonshot · Kimi</title>
  <defs>
    <linearGradient id="surface" x1="0" y1="0" x2="1" y2="1">
      <stop offset="0" stop-color="#102846"/>
      <stop offset="1" stop-color="#0b1b31"/>
    </linearGradient>
  </defs>
  <rect x="0.5" y="0.5" width="147" height="41" rx="10" fill="url(#surface)" stroke="#294a70"/>
  <rect x="0" y="8" width="2" height="26" rx="1" fill="#35d4ff" fill-opacity="0.72"/>
  <ns0:svg xmlns:ns0="http://www.w3.org/2000/svg" height="22" style="flex:none;line-height:1" viewBox="0 0 24 24" width="22" x="12" y="10" color="#f6f9ff" aria-hidden="true"><ns0:path d="M21.846 0a1.923 1.923 0 110 3.846H20.15a.226.226 0 01-.227-.226V1.923C19.923.861 20.784 0 21.846 0z" fill="#1783FF" /><ns0:path d="M11.065 11.199l7.257-7.2c.137-.136.06-.41-.116-.41H14.3a.164.164 0 00-.117.051l-7.82 7.756c-.122.12-.302.013-.302-.179V3.82c0-.127-.083-.23-.185-.23H3.186c-.103 0-.186.103-.186.23V19.77c0 .128.083.23.186.23h2.69c.103 0 .186-.102.186-.23v-3.25c0-.069.025-.135.069-.178l2.424-2.406a.158.158 0 01.205-.023l6.484 4.772a7.677 7.677 0 003.453 1.283c.108.012.2-.095.2-.23v-3.06c0-.117-.07-.212-.164-.227a5.028 5.028 0 01-2.027-.807l-5.613-4.064c-.117-.078-.132-.279-.028-.381z" fill="#fff" /></ns0:svg>
  <text x="42" y="25" fill="#f6f9ff" font-family="Arial, sans-serif" font-size="10.5" font-weight="700" letter-spacing="0.15">Moonshot · Kimi</text>
</svg>
